# Wavefront OBJ exported by MilkShape 3D

mtllib arrow.mtl

v 0.174794 0.000000 -0.876389
v 0.000000 0.000000 0.998612
v -0.150778 0.085881 -0.876389
v 0.000000 0.000000 0.998612
v 0.012500 -0.387500 0.298611
v 0.000000 0.000000 0.998612
v 0.174794 0.000000 -0.876389
v -0.323085 0.193750 0.298611
v 0.174473 0.000000 0.298611
v 0.174473 0.000000 0.298611
v 0.012500 0.387500 0.298611
v 0.000000 0.000000 0.998612
v -0.323085 -0.193750 0.298611
v 0.000000 0.000000 0.998612
v 0.400000 0.000000 0.298611
v 0.400000 0.000000 0.298611
v 0.000321 -0.171763 -0.876389
v 0.174794 0.000000 -0.876389
v -0.150778 0.085881 -0.876389
v 0.000321 -0.171763 -0.876389
v 0.000321 0.171763 -0.876389
v 0.000321 0.171763 -0.876389
v -0.087237 0.148751 0.298611
v -0.087237 -0.148751 0.298611
v -0.150778 -0.085882 -0.876389
v -0.150778 -0.085882 -0.876389
v 0.348085 0.193750 0.298611
v 0.000000 0.000000 0.998612
v 0.348085 -0.193750 0.298611
v 0.000000 0.000000 0.998612
v -0.174473 0.000000 0.298611
v 0.087236 0.148751 0.298611
v 0.087236 -0.148751 0.298611
v 0.087557 -0.148751 -0.876389
v 0.087557 -0.148751 -0.876389
v -0.375000 0.000000 0.298611
v -0.181250 0.335585 0.298611
v -0.181250 -0.335585 0.298611
v 0.206250 -0.335585 0.298611
v 0.206250 0.335585 0.298611
v 0.087557 0.148751 -0.876389
v 0.087557 0.148751 -0.876389
v -0.174152 0.000000 -0.876389
v -0.174152 0.000000 -0.876389
v -0.086916 0.148751 -0.876389
v -0.086916 0.148751 -0.876389
v -0.086916 -0.148751 -0.876389
v -0.086916 -0.148751 -0.876389
v 0.151419 -0.085882 -0.876389
v 0.151419 -0.085882 -0.876389
v 0.151419 0.085881 -0.876389
v 0.151419 0.085881 -0.876389
v 0.151098 -0.085881 0.298611
v 0.151098 0.085881 0.298611
v -0.151098 0.085881 0.298611
v -0.151098 -0.085881 0.298611
v 0.000000 0.171763 0.298611
v 0.000000 -0.171763 0.298611
v 0.000321 0.000000 -0.876389
# 59 vertices

vt 0.083333 0.000000
vt 0.166667 0.000000
vt 0.166667 0.333333
vt 0.666667 0.000000
vt 0.750000 0.000000
vt 0.666667 0.333333
vt 0.666667 0.666667
vt 0.750000 0.666667
vt 0.666667 1.000000
vt 0.916667 0.000000
vt 1.000000 0.333333
vt 0.916667 0.333333
vt 0.250000 0.000000
vt 0.250000 0.333333
vt 0.583333 0.000000
vt 0.583333 0.333333
vt 0.166667 1.000000
vt 0.083333 0.666667
vt 0.166667 0.666667
vt 0.833333 1.000000
vt 0.833333 0.666667
vt 0.916667 0.666667
vt 0.250000 0.666667
vt 0.333333 0.666667
vt 0.333333 1.000000
vt 0.416667 0.666667
vt 0.500000 0.666667
vt 0.500000 1.000000
vt 0.583333 0.666667
vt 0.000000 1.000000
vt 1.000000 0.000000
vt 0.416667 0.000000
vt 0.333333 0.333333
vt 0.333333 0.000000
vt 0.500000 0.333333
vt 0.833333 0.333333
vt 0.500000 0.000000
vt 0.000000 0.666667
vt 0.000000 0.333333
vt 1.000000 0.666667
vt 1.000000 1.000000
vt 0.416667 0.333333
vt 0.083333 0.333333
vt 0.750000 0.333333
vt 0.833333 0.000000
vt 0.000000 0.000000
# 46 texture coordinates

vn 0.863068 0.505088 0.000236
vn 0.494920 0.868939 0.000135
vn 0.343961 0.603897 -0.719027
vn -0.494915 -0.868941 -0.000135
vn 0.000001 -1.000000 0.000000
vn -0.343914 -0.603816 -0.719117
vn -0.424291 -0.734146 -0.530101
vn -0.000251 -0.486797 -0.873515
vn -0.439435 -0.760348 0.478298
vn 0.863067 -0.505089 0.000236
vn 0.682376 -0.185727 -0.707014
vn 0.599522 -0.350855 -0.719357
vn 0.000001 1.000000 0.000000
vn 0.000001 0.695118 -0.718896
vn -0.863070 -0.505085 -0.000235
vn -0.599383 -0.350770 -0.719514
vn 0.435449 0.755005 0.490256
vn 0.421647 0.243585 -0.873430
vn 0.425431 0.737636 -0.524311
vn 0.435449 -0.755005 0.490256
vn 0.425431 -0.737636 -0.524311
vn 0.421647 -0.243585 -0.873430
vn -0.000251 0.486797 -0.873515
vn -0.424292 0.734146 -0.530101
vn -0.439435 0.760348 0.478298
vn -0.421456 0.243185 -0.873634
vn -0.846108 0.000000 -0.533011
vn -0.881480 0.000000 0.472221
vn -0.421456 -0.243185 -0.873634
vn 0.000000 0.000000 -1.000000
vn 0.964899 -0.262622 0.000264
vn -0.863070 0.505084 -0.000235
vn -0.343915 0.603815 -0.719117
vn -0.494919 0.868939 -0.000135
vn -0.694270 0.000001 -0.719715
vn 0.343960 -0.603898 -0.719026
vn -1.000000 0.000001 -0.000273
vn 0.831828 0.222887 -0.508314
vn 0.845660 0.226593 0.483234
vn 0.682376 0.185728 -0.707014
vn 0.831828 -0.222887 -0.508314
vn 0.845660 -0.226593 0.483234
vn -0.599383 0.350770 -0.719514
vn 0.599522 0.350854 -0.719357
vn 0.000001 -0.695118 -0.718896
vn 0.494917 -0.868940 0.000135
vn 0.964898 0.262625 0.000264
# 47 normals

g Mesh01
usemtl MatD3D01
s 1
f 51/1/1 42/2/2 32/3/3
f 47/4/4 20/5/5 24/6/6
f 38/7/7 5/8/8 4/9/9
f 49/10/10 10/11/11 53/12/12
f 22/13/13 57/14/14 32/3/3
f 25/15/15 24/6/6 56/16/16
f 2/17/17 27/18/18 40/19/19
f 6/20/20 39/21/21 29/22/22
f 57/14/14 11/23/23 32/3/3
f 37/24/24 12/25/25 11/23/23
f 8/26/26 36/27/27 14/28/28
f 56/16/16 24/6/6 13/29/29
f 10/11/11 29/22/22 53/12/12
f 32/3/3 40/19/19 27/18/18
f 59/30/30 17/30/30 48/30/30
f 7/31/31 10/11/11 49/10/10
f 19/30/30 46/30/30 59/30/30
f 3/32/32 23/33/33 45/34/34
f 8/26/26 31/35/35 36/27/27
f 37/24/24 11/23/23 23/33/33
f 39/21/21 33/36/36 29/22/22
f 5/8/8 38/7/7 24/6/6
f 43/37/37 25/15/15 31/35/35
f 44/30/30 59/30/30 26/30/30
f 16/38/38 27/18/18 28/30/39
f 16/38/38 9/39/40 27/18/18
f 15/40/41 29/22/22 10/11/11
f 15/40/41 30/41/42 29/22/22
f 23/33/33 55/42/43 8/26/26
f 23/33/33 3/32/32 55/42/43
f 9/39/40 54/43/44 27/18/18
f 9/39/40 51/1/1 54/43/44
f 58/44/45 33/36/36 5/8/8
f 58/44/45 20/5/5 33/36/36
f 20/5/5 34/45/46 33/36/36
f 17/30/30 59/30/30 35/30/30
f 13/29/29 36/27/27 31/35/35
f 13/29/29 14/28/28 36/27/27
f 8/26/26 37/24/24 23/33/33
f 8/26/26 12/25/25 37/24/24
f 13/29/29 38/7/7 4/9/9
f 13/29/29 24/6/6 38/7/7
f 5/8/8 39/21/21 6/20/20
f 5/8/8 33/36/36 39/21/21
f 11/23/23 40/19/19 32/3/3
f 11/23/23 2/17/17 40/19/19
f 21/30/30 41/30/30 59/30/30
f 22/13/13 32/3/3 42/2/2
f 3/32/32 43/37/37 31/35/35
f 19/30/30 59/30/30 44/30/30
f 22/13/13 45/34/34 23/33/33
f 21/30/30 59/30/30 46/30/30
f 25/15/15 47/4/4 24/6/6
f 26/30/30 59/30/30 48/30/30
f 34/45/46 49/10/10 33/36/36
f 35/30/30 59/30/30 50/30/30
f 1/46/47 51/1/1 9/39/40
f 59/30/30 41/30/30 52/30/30
f 33/36/36 53/12/12 29/22/22
f 33/36/36 49/10/10 53/12/12
f 32/3/3 54/43/44 51/1/1
f 32/3/3 27/18/18 54/43/44
f 31/35/35 55/42/43 3/32/32
f 31/35/35 8/26/26 55/42/43
f 31/35/35 56/16/16 13/29/29
f 31/35/35 25/15/15 56/16/16
f 23/33/33 57/14/14 22/13/13
f 23/33/33 11/23/23 57/14/14
f 24/6/6 58/44/45 5/8/8
f 24/6/6 20/5/5 58/44/45
f 18/30/30 59/30/30 52/30/30
f 18/30/30 50/30/30 59/30/30
# 72 triangles in group

# 72 triangles total

