# Wavefront OBJ exported by MilkShape 3D

mtllib axis1.mtl

v 0.090216 0.000000 0.000705
v 0.000000 0.000000 1.000705
v -0.077821 0.044326 0.000705
v 0.000000 0.000000 1.000705
v 0.006452 -0.200000 0.627372
v 0.000000 0.000000 1.000705
v 0.090216 0.000000 0.000705
v -0.166753 0.100000 0.627372
v 0.090051 0.000000 0.627372
v 0.090051 0.000000 0.627372
v 0.006452 0.200000 0.627372
v 0.000000 0.000000 1.000705
v -0.166753 -0.100000 0.627372
v 0.000000 0.000000 1.000705
v 0.206452 0.000000 0.627372
v 0.206452 0.000000 0.627372
v 0.000165 -0.088652 0.000705
v 0.090216 0.000000 0.000705
v -0.077821 0.044326 0.000705
v 0.000165 -0.088652 0.000705
v 0.000165 0.088652 0.000705
v 0.000165 0.088652 0.000705
v -0.045025 0.076775 0.627372
v -0.045025 -0.076775 0.627372
v -0.077821 -0.044326 0.000705
v -0.077821 -0.044326 0.000705
v 0.179657 0.100000 0.627372
v 0.000000 0.000000 1.000705
v 0.179657 -0.100000 0.627372
v 0.000000 0.000000 1.000705
v -0.090051 0.000000 0.627372
v 0.045025 0.076775 0.627372
v 0.045025 -0.076775 0.627372
v 0.045191 -0.076775 0.000705
v 0.045191 -0.076775 0.000705
v -0.193548 0.000000 0.627372
v -0.093548 0.173205 0.627372
v -0.093548 -0.173205 0.627372
v 0.106452 0.173205 0.627372
v 0.106452 -0.173205 0.627372
v 0.045191 0.076775 0.000705
v 0.045191 0.076775 0.000705
v -0.089885 0.000000 0.000705
v -0.089885 0.000000 0.000705
v -0.044860 0.076775 0.000705
v -0.044860 0.076775 0.000705
v -0.044860 -0.076775 0.000705
v -0.044860 -0.076775 0.000705
v 0.078152 -0.044326 0.000705
v 0.078152 -0.044326 0.000705
v 0.078152 0.044326 0.000705
v 0.078152 0.044326 0.000705
v 0.077986 0.044326 0.627372
v 0.077986 -0.044326 0.627372
v -0.077986 0.044326 0.627372
v -0.077986 -0.044326 0.627372
v 0.000000 -0.088652 0.627372
v 0.000000 0.088652 0.627372
v 0.000165 0.000000 0.000705
v 0.090216 0.000705 0.000000
v 0.000000 1.000705 0.000000
v 0.006452 0.627372 -0.200000
v 0.000000 1.000705 0.000000
v 0.000165 0.000705 0.088652
v 0.000000 1.000705 0.000000
v 0.090216 0.000705 0.000000
v -0.166753 0.627372 0.100000
v 0.090051 0.627372 0.000000
v 0.090051 0.627372 0.000000
v 0.006452 0.627372 0.200000
v 0.000000 1.000705 0.000000
v -0.166753 0.627372 -0.100000
v 0.000000 1.000705 0.000000
v 0.206452 0.627372 0.000000
v 0.206452 0.627372 0.000000
v -0.045025 0.627372 0.076775
v -0.077821 0.000705 0.044326
v 0.000165 0.000705 0.088652
v 0.090216 0.000705 0.000000
v -0.077821 0.000705 0.044326
v 0.045191 0.000705 -0.076775
v 0.045191 0.000705 -0.076775
v -0.045025 0.627372 -0.076775
v -0.077821 0.000705 -0.044326
v -0.077821 0.000705 -0.044326
v 0.179657 0.627372 -0.100000
v 0.000000 1.000705 0.000000
v 0.179657 0.627372 0.100000
v 0.000000 1.000705 0.000000
v -0.090051 0.627372 0.000000
v 0.045025 0.627372 0.076775
v 0.045025 0.627372 -0.076775
v 0.078152 0.000705 0.044326
v 0.078152 0.000705 0.044326
v -0.193548 0.627372 0.000000
v -0.093548 0.627372 -0.173205
v -0.093548 0.627372 0.173205
v 0.106452 0.627372 -0.173205
v 0.106452 0.627372 0.173205
v -0.044860 0.000705 -0.076775
v -0.044860 0.000705 -0.076775
v -0.089885 0.000705 0.000000
v -0.089885 0.000705 0.000000
v 0.045191 0.000705 0.076775
v 0.045191 0.000705 0.076775
v -0.044860 0.000705 0.076775
v -0.044860 0.000705 0.076775
v 0.078152 0.000705 -0.044326
v 0.078152 0.000705 -0.044326
v 0.000165 0.000705 -0.088652
v 0.000165 0.000705 -0.088652
v 0.077986 0.627372 -0.044326
v 0.077986 0.627372 0.044326
v -0.077986 0.627372 -0.044326
v -0.077986 0.627372 0.044326
v 0.000000 0.627372 -0.088652
v 0.000000 0.627372 0.088652
v 0.000165 0.000705 0.000000
v 0.000705 -0.090216 0.000000
v 1.000705 0.000000 0.000000
v 0.627372 0.166754 -0.100000
v 0.000705 -0.000165 0.088652
v 1.000705 0.000000 0.000000
v 0.000705 -0.090216 0.000000
v 0.627372 0.166754 0.100000
v 1.000705 0.000000 0.000000
v 0.627372 -0.206452 0.000000
v 0.627372 -0.206452 0.000000
v 0.627372 -0.006452 0.200000
v 1.000705 0.000000 0.000000
v 0.627372 -0.006452 -0.200000
v 1.000705 0.000000 0.000000
v 0.627372 -0.090051 0.000000
v 0.627372 -0.090051 0.000000
v 0.000705 0.044860 -0.076775
v 0.000705 0.044860 -0.076775
v 0.000705 -0.090216 0.000000
v 0.000705 -0.000165 0.088652
v 0.627372 0.045025 -0.076775
v 0.000705 0.077821 0.044326
v 0.000705 0.077821 0.044326
v 0.627372 0.045025 0.076775
v 0.627372 -0.179657 0.100000
v 1.000705 0.000000 0.000000
v 0.627372 -0.179657 -0.100000
v 1.000705 0.000000 0.000000
v 0.000705 -0.045191 -0.076775
v 0.000705 -0.045191 -0.076775
v 0.627372 0.090051 0.000000
v 0.627372 -0.045025 0.076775
v 0.627372 -0.045025 -0.076775
v 0.000705 -0.078152 0.044326
v 0.000705 -0.078152 0.044326
v 0.627372 0.193549 0.000000
v 0.627372 0.093548 -0.173205
v 0.627372 0.093548 0.173205
v 0.627372 -0.106452 -0.173205
v 0.627372 -0.106452 0.173205
v 0.000705 0.089885 0.000000
v 0.000705 0.089885 0.000000
v 0.000705 -0.078152 -0.044326
v 0.000705 -0.078152 -0.044326
v 0.000705 -0.045191 0.076775
v 0.000705 -0.045191 0.076775
v 0.000705 0.044860 0.076775
v 0.000705 0.044860 0.076775
v 0.000705 0.077821 -0.044326
v 0.000705 0.077821 -0.044326
v 0.000705 -0.000165 -0.088652
v 0.000705 -0.000165 -0.088652
v 0.627372 -0.077986 -0.044326
v 0.627372 -0.077986 0.044326
v 0.627372 0.077986 -0.044326
v 0.627372 0.077986 0.044326
v 0.627372 0.000000 -0.088652
v 0.627372 0.000000 0.088652
v 0.000705 -0.000165 0.000000
# 177 vertices

vt 0.083333 0.000000
vt 0.166667 0.000000
vt 0.166667 0.333333
vt 0.666667 0.000000
vt 0.750000 0.000000
vt 0.666667 0.333333
vt 0.666667 0.666667
vt 0.750000 0.666667
vt 0.666667 1.000000
vt 0.916667 0.000000
vt 1.000000 0.333333
vt 0.916667 0.333333
vt 0.250000 0.000000
vt 0.250000 0.333333
vt 0.583333 0.000000
vt 0.583333 0.333333
vt 0.166667 1.000000
vt 0.083333 0.666667
vt 0.166667 0.666667
vt 0.833333 1.000000
vt 0.833333 0.666667
vt 0.916667 0.666667
vt 0.250000 0.666667
vt 0.333333 0.666667
vt 0.333333 1.000000
vt 0.416667 0.666667
vt 0.500000 0.666667
vt 0.500000 1.000000
vt 0.583333 0.666667
vt 0.000000 1.000000
vt 1.000000 0.000000
vt 0.416667 0.000000
vt 0.333333 0.333333
vt 0.333333 0.000000
vt 0.500000 0.333333
vt 0.833333 0.333333
vt 0.500000 0.000000
vt 0.000000 0.666667
vt 0.000000 0.333333
vt 1.000000 0.666667
vt 1.000000 1.000000
vt 0.416667 0.333333
vt 0.083333 0.333333
vt 0.750000 0.333333
vt 0.833333 0.000000
vt 0.000000 0.000000
# 46 texture coordinates

vn 0.863069 0.505087 0.000228
vn 0.494916 0.868941 0.000131
vn 0.343958 0.603897 -0.719028
vn -0.494919 -0.868939 -0.000130
vn -0.000001 -1.000000 0.000000
vn -0.343914 -0.603817 -0.719116
vn -0.422463 -0.731019 -0.535851
vn -0.000238 -0.486543 -0.873657
vn -0.442644 -0.765938 0.466267
vn 0.863069 -0.505087 0.000228
vn 0.682373 -0.185726 -0.707017
vn 0.599519 -0.350856 -0.719359
vn -0.000001 1.000000 0.000000
vn 0.000000 0.695118 -0.718896
vn -0.863069 -0.505087 -0.000228
vn -0.599382 -0.350776 -0.719512
vn 0.438827 0.760821 0.478104
vn 0.421490 0.243487 -0.873533
vn 0.423625 0.734464 -0.530194
vn 0.438827 -0.760821 0.478104
vn 0.423625 -0.734464 -0.530194
vn 0.421490 -0.243487 -0.873533
vn -0.000238 0.486543 -0.873657
vn -0.422463 0.731019 -0.535851
vn -0.442644 0.765938 0.466267
vn -0.421175 0.243031 -0.873812
vn -0.842502 0.000000 -0.538693
vn -0.887786 0.000000 0.460257
vn -0.421175 -0.243031 -0.873812
vn 0.000000 0.000000 -1.000000
vn 0.964901 -0.262613 0.000254
vn -0.863069 0.505087 -0.000228
vn -0.343914 0.603817 -0.719116
vn -0.494919 0.868939 -0.000130
vn -0.694272 0.000000 -0.719712
vn 0.343958 -0.603897 -0.719028
vn -1.000000 0.000000 -0.000265
vn 0.828433 0.221979 -0.514222
vn 0.851997 0.228293 0.471152
vn 0.682373 0.185726 -0.707017
vn 0.828433 -0.221979 -0.514222
vn 0.851997 -0.228293 0.471152
vn -0.599382 0.350776 -0.719512
vn 0.599519 0.350856 -0.719359
vn 0.000000 -0.695118 -0.718896
vn 0.494916 -0.868941 0.000131
vn 0.964901 0.262613 0.000254
vn 0.343958 -0.719028 -0.603897
vn 0.000000 -0.718896 -0.695118
vn -0.494919 -0.000130 -0.868939
vn -0.343914 -0.719116 -0.603817
vn -0.000238 -0.873657 -0.486543
vn -0.422463 -0.535851 -0.731019
vn -0.442644 0.466267 -0.765938
vn 0.494916 0.000131 0.868941
vn 0.863069 0.000228 0.505087
vn 0.343958 -0.719028 0.603897
vn -0.863069 -0.000228 0.505087
vn -0.343914 -0.719116 0.603817
vn -0.599382 -0.719512 0.350776
vn -0.000001 0.000000 1.000000
vn 0.000000 -0.718896 0.695118
vn 0.438827 0.478104 -0.760821
vn 0.421490 -0.873533 -0.243487
vn 0.423625 -0.530194 -0.734464
vn 0.438827 0.478104 0.760821
vn 0.423625 -0.530194 0.734464
vn 0.421490 -0.873533 0.243487
vn -0.422463 -0.535851 0.731019
vn -0.000238 -0.873657 0.486543
vn -0.442644 0.466267 0.765938
vn -0.842502 -0.538693 0.000000
vn -0.421175 -0.873812 -0.243031
vn -0.694272 -0.719712 0.000000
vn -0.887786 0.460257 0.000000
vn -0.421175 -0.873812 0.243031
vn -0.494919 -0.000130 0.868939
vn 0.863069 0.000228 -0.505087
vn 0.494916 0.000131 -0.868941
vn 0.828433 -0.514222 -0.221979
vn 0.851997 0.471152 -0.228293
vn 0.682373 -0.707017 -0.185726
vn 0.828433 -0.514222 0.221979
vn 0.682373 -0.707017 0.185726
vn 0.851997 0.471152 0.228293
vn -0.599382 -0.719512 -0.350776
vn -0.863069 -0.000228 -0.505087
vn 0.599519 -0.719359 0.350856
vn 0.599519 -0.719359 -0.350856
vn 0.964901 0.000254 0.262613
vn 0.964901 0.000254 -0.262613
vn -0.719028 -0.343958 -0.603897
vn -0.718896 -0.000000 -0.695118
vn -0.000228 0.863069 -0.505087
vn -0.719712 0.694272 0.000000
vn -0.719028 -0.343958 0.603897
vn -0.718896 0.000000 0.695118
vn 0.000131 -0.494916 0.868941
vn 0.000228 -0.863069 0.505087
vn -0.538692 0.842502 0.000000
vn -0.873812 0.421174 0.243032
vn 0.460259 0.887785 0.000000
vn -0.719512 0.599382 0.350776
vn -0.000228 0.863069 0.505087
vn -0.719116 0.343914 0.603817
vn 0.478104 -0.438827 -0.760821
vn -0.873533 -0.421490 -0.243487
vn -0.530194 -0.423625 -0.734464
vn 0.478104 -0.438827 0.760821
vn -0.530194 -0.423625 0.734464
vn -0.873533 -0.421490 0.243487
vn -0.535850 0.422461 0.731021
vn -0.873657 0.000238 0.486543
vn 0.466267 0.442641 0.765940
vn -0.873657 0.000238 -0.486543
vn -0.535850 0.422461 -0.731021
vn 0.466267 0.442641 -0.765940
vn -0.000130 0.494919 -0.868939
vn -0.719116 0.343914 -0.603817
vn -0.000130 0.494919 0.868939
vn -0.514222 -0.828433 0.221979
vn -0.707017 -0.682373 0.185726
vn 0.471152 -0.851997 0.228293
vn -0.514222 -0.828433 -0.221979
vn 0.471152 -0.851997 -0.228293
vn -0.707017 -0.682373 -0.185726
vn 0.000228 -0.863069 -0.505087
vn 0.000131 -0.494916 -0.868941
vn -0.719512 0.599382 -0.350776
vn -0.873812 0.421174 -0.243032
vn -0.719359 -0.599519 0.350856
vn -0.719359 -0.599519 -0.350856
vn 0.000254 -0.964901 0.262613
vn 0.000254 -0.964901 -0.262613
# 134 normals

g Mesh01
usemtl MatD3D01
s 1
f 51/1/1 42/2/2 32/3/3
f 47/4/4 20/5/5 24/6/6
f 38/7/7 5/8/8 4/9/9
f 49/10/10 10/11/11 54/12/12
f 22/13/13 58/14/14 32/3/3
f 25/15/15 24/6/6 56/16/16
f 2/17/17 27/18/18 39/19/19
f 6/20/20 40/21/21 29/22/22
f 58/14/14 11/23/23 32/3/3
f 37/24/24 12/25/25 11/23/23
f 8/26/26 36/27/27 14/28/28
f 56/16/16 24/6/6 13/29/29
f 10/11/11 29/22/22 54/12/12
f 32/3/3 39/19/19 27/18/18
f 59/30/30 17/30/30 48/30/30
f 7/31/31 10/11/11 49/10/10
f 19/30/30 46/30/30 59/30/30
f 3/32/32 23/33/33 45/34/34
f 8/26/26 31/35/35 36/27/27
f 37/24/24 11/23/23 23/33/33
f 40/21/21 33/36/36 29/22/22
f 5/8/8 38/7/7 24/6/6
f 43/37/37 25/15/15 31/35/35
f 44/30/30 59/30/30 26/30/30
f 16/38/38 27/18/18 28/30/39
f 16/38/38 9/39/40 27/18/18
f 15/40/41 29/22/22 10/11/11
f 15/40/41 30/41/42 29/22/22
f 23/33/33 55/42/43 8/26/26
f 23/33/33 3/32/32 55/42/43
f 9/39/40 53/43/44 27/18/18
f 9/39/40 51/1/1 53/43/44
f 57/44/45 33/36/36 5/8/8
f 57/44/45 20/5/5 33/36/36
f 20/5/5 34/45/46 33/36/36
f 17/30/30 59/30/30 35/30/30
f 13/29/29 36/27/27 31/35/35
f 13/29/29 14/28/28 36/27/27
f 8/26/26 37/24/24 23/33/33
f 8/26/26 12/25/25 37/24/24
f 13/29/29 38/7/7 4/9/9
f 13/29/29 24/6/6 38/7/7
f 11/23/23 39/19/19 32/3/3
f 11/23/23 2/17/17 39/19/19
f 5/8/8 40/21/21 6/20/20
f 5/8/8 33/36/36 40/21/21
f 21/30/30 41/30/30 59/30/30
f 22/13/13 32/3/3 42/2/2
f 3/32/32 43/37/37 31/35/35
f 19/30/30 59/30/30 44/30/30
f 22/13/13 45/34/34 23/33/33
f 21/30/30 59/30/30 46/30/30
f 25/15/15 47/4/4 24/6/6
f 26/30/30 59/30/30 48/30/30
f 34/45/46 49/10/10 33/36/36
f 35/30/30 59/30/30 50/30/30
f 1/46/47 51/1/1 9/39/40
f 59/30/30 41/30/30 52/30/30
f 32/3/3 53/43/44 51/1/1
f 32/3/3 27/18/18 53/43/44
f 33/36/36 54/12/12 29/22/22
f 33/36/36 49/10/10 54/12/12
f 31/35/35 55/42/43 3/32/32
f 31/35/35 8/26/26 55/42/43
f 31/35/35 56/16/16 13/29/29
f 31/35/35 25/15/15 56/16/16
f 24/6/6 57/44/45 5/8/8
f 24/6/6 20/5/5 57/44/45
f 23/33/33 58/14/14 22/13/13
f 23/33/33 11/23/23 58/14/14
f 18/30/30 59/30/30 52/30/30
f 18/30/30 50/30/30 59/30/30
# 72 triangles in group

g Mesh02
usemtl MatD3D02
f 92/3/48 110/13/30 116/14/49
f 110/13/30 101/34/50 83/33/51
f 62/23/52 96/24/53 63/25/54
f 104/45/55 94/10/56 91/36/57
f 80/15/58 76/6/59 115/16/60
f 64/5/61 91/36/57 117/44/62
f 61/17/63 86/18/64 98/19/65
f 65/20/66 99/21/67 88/22/68
f 97/7/69 70/8/70 71/9/71
f 117/44/62 91/36/57 70/8/70
f 95/27/72 72/26/73 90/35/74
f 95/27/72 73/28/75 72/26/73
f 91/36/57 88/22/68 99/21/67
f 92/3/48 98/19/65 86/18/64
f 97/7/69 76/6/59 70/8/70
f 67/29/76 115/16/60 76/6/59
f 78/30/5 107/30/5 118/30/5
f 64/5/61 76/6/59 106/4/77
f 108/1/78 81/2/79 92/3/48
f 93/30/5 105/30/5 118/30/5
f 62/23/52 83/33/51 96/24/53
f 62/23/52 92/3/48 116/14/49
f 77/30/5 103/30/5 118/30/5
f 80/15/58 90/35/74 102/37/37
f 75/38/80 86/18/64 87/30/81
f 75/38/80 68/39/82 86/18/64
f 74/40/83 88/22/68 69/11/84
f 74/40/83 89/41/85 88/22/68
f 83/33/51 114/42/86 72/26/73
f 83/33/51 85/32/87 114/42/86
f 69/11/84 113/12/88 94/10/56
f 69/11/84 88/22/68 113/12/88
f 68/39/82 112/43/89 86/18/64
f 68/39/82 108/1/78 112/43/89
f 79/30/5 93/30/5 118/30/5
f 66/31/90 69/11/84 94/10/56
f 67/29/76 95/27/72 90/35/74
f 67/29/76 73/28/75 95/27/72
f 72/26/73 96/24/53 83/33/51
f 72/26/73 63/25/54 96/24/53
f 67/29/76 97/7/69 71/9/71
f 67/29/76 76/6/59 97/7/69
f 62/23/52 98/19/65 92/3/48
f 62/23/52 61/17/63 98/19/65
f 70/8/70 99/21/67 65/20/66
f 70/8/70 91/36/57 99/21/67
f 84/30/5 100/30/5 118/30/5
f 85/32/87 83/33/51 101/34/50
f 85/32/87 102/37/37 90/35/74
f 84/30/5 118/30/5 103/30/5
f 64/5/61 104/45/55 91/36/57
f 78/30/5 118/30/5 105/30/5
f 80/15/58 106/4/77 76/6/59
f 77/30/5 118/30/5 107/30/5
f 60/46/91 108/1/78 68/39/82
f 79/30/5 118/30/5 109/30/5
f 81/2/79 110/13/30 92/3/48
f 118/30/5 100/30/5 111/30/5
f 92/3/48 112/43/89 108/1/78
f 92/3/48 86/18/64 112/43/89
f 91/36/57 113/12/88 88/22/68
f 91/36/57 94/10/56 113/12/88
f 90/35/74 114/42/86 85/32/87
f 90/35/74 72/26/73 114/42/86
f 90/35/74 115/16/60 67/29/76
f 90/35/74 80/15/58 115/16/60
f 83/33/51 116/14/49 110/13/30
f 83/33/51 62/23/52 116/14/49
f 76/6/59 117/44/62 70/8/70
f 76/6/59 64/5/61 117/44/62
f 82/30/5 118/30/5 111/30/5
f 82/30/5 109/30/5 118/30/5
# 72 triangles in group

g Mesh03
usemtl MatD3D03
f 151/3/92 169/13/30 175/14/93
f 167/32/94 160/37/13 149/35/95
f 122/5/61 150/36/96 176/44/97
f 163/45/98 153/10/99 150/36/96
f 154/27/100 125/29/101 126/28/102
f 174/16/103 141/15/104 142/6/105
f 120/17/106 145/18/107 157/19/108
f 123/20/109 158/21/110 143/22/111
f 156/7/112 129/8/113 130/9/114
f 176/44/97 150/36/96 129/8/113
f 175/14/93 131/23/115 151/3/92
f 155/24/116 132/25/117 131/23/115
f 145/18/107 151/3/92 157/19/108
f 143/22/111 158/21/110 150/36/96
f 169/13/30 135/34/118 139/33/119
f 152/30/37 164/30/37 177/30/37
f 154/27/100 149/35/95 125/29/101
f 155/24/116 131/23/115 139/33/119
f 138/30/37 166/30/37 177/30/37
f 122/5/61 142/6/105 165/4/120
f 156/7/112 142/6/105 129/8/113
f 125/29/101 174/16/103 142/6/105
f 128/40/121 143/22/111 134/11/122
f 128/40/121 144/41/123 143/22/111
f 127/38/124 145/18/107 146/30/125
f 127/38/124 133/39/126 145/18/107
f 161/1/127 147/2/128 151/3/92
f 162/30/37 177/30/37 148/30/37
f 139/33/119 173/42/129 121/26/130
f 139/33/119 167/32/94 173/42/129
f 134/11/122 172/12/131 153/10/99
f 134/11/122 143/22/111 172/12/131
f 133/39/126 171/43/132 145/18/107
f 133/39/126 161/1/127 171/43/132
f 137/30/37 152/30/37 177/30/37
f 124/31/133 134/11/122 153/10/99
f 121/26/130 154/27/100 126/28/102
f 121/26/130 149/35/95 154/27/100
f 121/26/130 155/24/116 139/33/119
f 121/26/130 132/25/117 155/24/116
f 125/29/101 156/7/112 130/9/114
f 125/29/101 142/6/105 156/7/112
f 131/23/115 157/19/108 151/3/92
f 131/23/115 120/17/106 157/19/108
f 129/8/113 158/21/110 123/20/109
f 129/8/113 150/36/96 158/21/110
f 140/30/37 159/30/37 177/30/37
f 141/15/104 149/35/95 160/37/13
f 119/46/134 161/1/127 133/39/126
f 137/30/37 177/30/37 162/30/37
f 122/5/61 163/45/98 150/36/96
f 138/30/37 177/30/37 164/30/37
f 141/15/104 165/4/120 142/6/105
f 140/30/37 177/30/37 166/30/37
f 135/34/118 167/32/94 139/33/119
f 177/30/37 159/30/37 168/30/37
f 147/2/128 169/13/30 151/3/92
f 148/30/37 177/30/37 170/30/37
f 151/3/92 171/43/132 161/1/127
f 151/3/92 145/18/107 171/43/132
f 150/36/96 172/12/131 143/22/111
f 150/36/96 153/10/99 172/12/131
f 149/35/95 173/42/129 167/32/94
f 149/35/95 121/26/130 173/42/129
f 149/35/95 174/16/103 125/29/101
f 149/35/95 141/15/104 174/16/103
f 139/33/119 175/14/93 169/13/30
f 139/33/119 131/23/115 175/14/93
f 142/6/105 176/44/97 129/8/113
f 142/6/105 122/5/61 176/44/97
f 136/30/37 177/30/37 168/30/37
f 136/30/37 170/30/37 177/30/37
# 72 triangles in group

# 216 triangles total

