# Wavefront OBJ exported by MilkShape 3D

mtllib plane.mtl

v 5.000000 0.000000 4.999712
v 3.000000 0.000000 4.999712
v 1.000000 0.000000 4.999712
v -1.000000 0.000000 4.999712
v -3.000000 0.000000 4.999712
v -5.000000 0.000000 4.999712
v 5.000000 0.000000 2.999827
v 3.000000 0.000000 2.999827
v 1.000000 0.000000 2.999827
v -1.000000 0.000000 2.999827
v -3.000000 0.000000 2.999827
v -5.000000 0.000000 2.999827
v 5.000000 0.000000 0.999942
v 3.000000 0.000000 0.999942
v 1.000000 0.000000 0.999942
v -1.000000 0.000000 0.999942
v -3.000000 0.000000 0.999942
v -5.000000 0.000000 0.999942
v 5.000000 0.000000 -0.999943
v 3.000000 0.000000 -0.999943
v 1.000000 0.000000 -0.999943
v -1.000000 0.000000 -0.999943
v -3.000000 0.000000 -0.999943
v -5.000000 0.000000 -0.999943
v 5.000000 0.000000 -2.999827
v 3.000000 0.000000 -2.999827
v 1.000000 0.000000 -2.999827
v -1.000000 0.000000 -2.999827
v -3.000000 0.000000 -2.999827
v -5.000000 0.000000 -2.999827
v 5.000000 0.000000 -4.999712
v 3.000000 0.000000 -4.999712
v 1.000000 0.000000 -4.999712
v -1.000000 0.000000 -4.999712
v -3.000000 0.000000 -4.999712
v -5.000000 0.000000 -4.999712
# 36 vertices

vt 5.000000 -4.000000
vt 5.000000 -3.000000
vt 4.000000 -3.000000
vt 4.000000 -4.000000
vt 3.000000 -3.000000
vt 3.000000 -4.000000
vt 2.000000 -3.000000
vt 2.000000 -4.000000
vt 1.000000 -3.000000
vt 1.000000 -4.000000
vt 0.000000 -3.000000
vt 0.000000 -4.000000
vt 5.000000 -2.000000
vt 4.000000 -2.000000
vt 3.000000 -2.000000
vt 2.000000 -2.000000
vt 1.000000 -2.000000
vt 0.000000 -2.000000
vt 5.000000 -1.000000
vt 4.000000 -1.000000
vt 3.000000 -1.000000
vt 2.000000 -1.000000
vt 1.000000 -1.000000
vt 0.000000 -1.000000
vt 5.000000 0.000000
vt 4.000000 0.000000
vt 3.000000 0.000000
vt 2.000000 0.000000
vt 1.000000 0.000000
vt 0.000000 0.000000
vt 5.000000 1.000000
vt 4.000000 1.000000
vt 3.000000 1.000000
vt 2.000000 1.000000
vt 1.000000 1.000000
vt 0.000000 1.000000
# 36 texture coordinates

vn 0.000000 1.000000 0.000000
# 1 normals

g Plane03
usemtl Material01
s 1
f 1/1/1 7/2/1 8/3/1
f 1/1/1 8/3/1 2/4/1
f 8/3/1 9/5/1 3/6/1
f 8/3/1 3/6/1 2/4/1
f 3/6/1 9/5/1 10/7/1
f 3/6/1 10/7/1 4/8/1
f 10/7/1 11/9/1 5/10/1
f 10/7/1 5/10/1 4/8/1
f 5/10/1 11/9/1 12/11/1
f 5/10/1 12/11/1 6/12/1
f 13/13/1 14/14/1 8/3/1
f 13/13/1 8/3/1 7/2/1
f 8/3/1 14/14/1 15/15/1
f 8/3/1 15/15/1 9/5/1
f 15/15/1 16/16/1 10/7/1
f 15/15/1 10/7/1 9/5/1
f 10/7/1 16/16/1 17/17/1
f 10/7/1 17/17/1 11/9/1
f 17/17/1 18/18/1 12/11/1
f 17/17/1 12/11/1 11/9/1
f 13/13/1 19/19/1 20/20/1
f 13/13/1 20/20/1 14/14/1
f 20/20/1 21/21/1 15/15/1
f 20/20/1 15/15/1 14/14/1
f 15/15/1 21/21/1 22/22/1
f 15/15/1 22/22/1 16/16/1
f 22/22/1 23/23/1 17/17/1
f 22/22/1 17/17/1 16/16/1
f 17/17/1 23/23/1 24/24/1
f 17/17/1 24/24/1 18/18/1
f 25/25/1 26/26/1 20/20/1
f 25/25/1 20/20/1 19/19/1
f 20/20/1 26/26/1 27/27/1
f 20/20/1 27/27/1 21/21/1
f 27/27/1 28/28/1 22/22/1
f 27/27/1 22/22/1 21/21/1
f 22/22/1 28/28/1 29/29/1
f 22/22/1 29/29/1 23/23/1
f 29/29/1 30/30/1 24/24/1
f 29/29/1 24/24/1 23/23/1
f 25/25/1 31/31/1 32/32/1
f 25/25/1 32/32/1 26/26/1
f 32/32/1 33/33/1 27/27/1
f 32/32/1 27/27/1 26/26/1
f 27/27/1 33/33/1 34/34/1
f 27/27/1 34/34/1 28/28/1
f 34/34/1 35/35/1 29/29/1
f 34/34/1 29/29/1 28/28/1
f 29/29/1 35/35/1 36/36/1
f 29/29/1 36/36/1 30/30/1
# 50 triangles in group

# 50 triangles total

